<?xml version="1.0" encoding="UTF-8"?>
<svg style="overflow: visible;" height="1024" width="1024" xmlns="http://www.w3.org/2000/svg">
  <desc>Created with Curve</desc>
  <path d="M512,384L320,576H448V896H576V576H704Z">
  </path>
  <path d="M832,320C823.25,320,814.875,321.406,806.375,322.562C757.625,208.188,644.125,128,512,128C379.844,128,266.438,208.188,217.594,322.562C209.156,321.406,200.781,320,192,320C85.938,320,0,406,0,512C0,618.062,85.938,704,192,704C212.531,704,231.875,699.75,250.375,693.562C284.469,731.375,331.312,756.75,384,764.5V699.25C334.156,688.875,292.406,656.438,271.375,611.5C249.531,629,222.219,640,192,640C121.344,640,64,582.625,64,512C64,441.344,121.344,384,192,384C217.281,384,240.625,391.562,260.406,404.156C281.344,283.78099999999995,385.594,192,512,192C638.5,192,741.75,284.219,762.5,404.75C782.5,391.75,806.375,384,832,384C902.625,384,960,441.344,960,512C960,582.625,902.625,640,832,640C821.75,640,812,638.5,802.375,636.25C773.438,677.125,725.938,704,672,704C660.938,704,650.375,702.375,640,700V764.938C650.438,766.626,661.062,768,672,768C733.188,768,788.5,743.312,829,703.562C830,703.562,830.875,704,832,704C938.062,704,1024,618.062,1024,512C1024,406,938.062,320,832,320Z">
  </path>
</svg>
